# xmcd
#
# Track frame offsets:
#	150
#	16903
#	30959
#	47992
#	64783
#	87074
#	98964
#	116951
#	131154
#	148117
#
# Disc length: 2215 seconds
#
# Revision: 0
# Processed by: cddbd v1.5.2PL0 Copyright (c) Steve Scherf et al.
# Submitted via: EasyCDDAExtractor 12.0.0.1
#
DISCID=8808a50a
DTITLE=naurÊa - Babelesko
DYEAR=2009
DGENRE=Sambaião
TTITLE0=Black People house
TTITLE1=Sekai ua hitotsu no booru
TTITLE2=La créole
TTITLE3=Cumidistufahahernia
TTITLE4=Kreistanz
TTITLE5=Hoje tem Forró
TTITLE6=Noastra Doamna de Tacere
TTITLE7=Conversación de Borracho
TTITLE8=Casa de Preto
TTITLE9=Nossa Senhora do Silêncio
EXTD=
EXTT0=
EXTT1=
EXTT2=
EXTT3=
EXTT4=
EXTT5=
EXTT6=
EXTT7=
EXTT8=
EXTT9=
PLAYORDER=
